<?xml version="1.0" standalone="no"?><!DOCTYPE svg PUBLIC "-//W3C//DTD SVG 1.1//EN" "http://www.w3.org/Graphics/SVG/1.1/DTD/svg11.dtd"><svg t="1605342842461" class="icon" viewBox="0 0 1024 1024" version="1.1" xmlns="http://www.w3.org/2000/svg" p-id="10030" width="300" height="300" xmlns:xlink="http://www.w3.org/1999/xlink"><defs><style type="text/css"></style></defs><path d="M62.407352 773.337053" p-id="10031" fill="#d4237a"></path><path d="M892.768143 879.102912l-27.097148-493.845525c-1.867534-34.04949-27.096125-59.436694-61.184501-59.436694L686.488033 325.820694 686.488033 256.760828c0-48.938596-17.480116-90.89415-51.569516-124.990712-34.088376-34.086329-76.04393-51.568493-124.991736-51.568493-48.073902 0-90.24435 17.267269-124.991736 51.568493-34.305317 33.872458-51.569516 76.051093-51.569516 124.990712l0 69.058842L215.368092 325.81967c-34.088376 0-59.315944 25.388227-61.184501 59.436694l-27.096125 493.845525c0 0 0 0.86674 0 1.743714 0 34.086329 26.221198 61.189617 60.310597 61.189617l645.059482 0c34.089399 0 60.310597-27.103288 60.310597-61.189617C892.768143 880.845603 892.816239 879.969653 892.768143 879.102912zM396.298861 256.760828c0-31.457456 11.363815-58.560744 33.214473-80.405261 21.851681-21.853727 48.947805-33.219589 80.414471-33.219589 31.465642 0 58.561767 11.364839 80.414471 33.219589 21.851681 21.844517 33.213449 48.947805 33.213449 80.405261l0 69.058842L396.298861 325.81967 396.298861 256.760828zM189.146894 879.102912l27.969005-491.225861L333.366553 387.877051l0 59.436694c-7.866155 7.860015-11.362792 17.48114-11.362792 28.837792 0 14.861476 6.118348 27.103288 18.355043 34.963303 13.111622 16.614399 35.836183 16.614399 48.946782 0 12.236696-7.860015 18.356067-20.101827 18.356067-34.963303 0-11.355629-3.496637-20.977777-11.363815-28.837792L396.297838 387.877051 623.555725 387.877051l0 59.436694c-7.866155 7.860015-11.362792 17.48114-11.362792 28.837792 0 14.861476 6.118348 27.103288 18.355043 34.963303 13.110599 16.614399 35.836183 16.614399 48.946782 0 12.236696-7.860015 18.356067-20.101827 18.356067-34.963303 0-11.355629-3.496637-20.977777-11.363815-28.837792L686.48701 387.877051l116.250654 0 27.970028 491.225861L189.146894 879.102912z" p-id="10032" fill="#d4237a"></path><path d="M957.451328 773.337053" p-id="10033" fill="#d4237a"></path></svg>